<svg xmlns="http://www.w3.org/2000/svg" xmlns:xlink="http://www.w3.org/1999/xlink" width="1080" zoomAndPan="magnify" viewBox="0 0 810 809.999993" height="1080" preserveAspectRatio="xMidYMid meet" version="1.2"><defs><clipPath id="f3c67d94df"><path d="M 490.222656 331.945312 L 609.46875 331.945312 L 609.46875 484.316406 L 490.222656 484.316406 Z M 490.222656 331.945312 "/></clipPath><clipPath id="d63eb5f411"><path d="M 626.878906 332 L 772.621094 332 L 772.621094 484.339844 L 626.878906 484.339844 Z M 626.878906 332 "/></clipPath><clipPath id="454c2c9185"><path d="M 319.746094 328.523438 L 491.988281 328.523438 L 491.988281 480.890625 L 319.746094 480.890625 Z M 319.746094 328.523438 "/></clipPath><clipPath id="e66acf97d6"><path d="M 200.441406 325.632812 L 319.683594 325.632812 L 319.683594 478 L 200.441406 478 Z M 200.441406 325.632812 "/></clipPath><clipPath id="7c48750a5e"><path d="M 37.289062 325.660156 L 183.03125 325.660156 L 183.03125 478 L 37.289062 478 Z M 37.289062 325.660156 "/></clipPath></defs><g id="9a51ac151c"><g clip-rule="nonzero" clip-path="url(#f3c67d94df)"><path style=" stroke:none;fill-rule:nonzero;fill:#000000;fill-opacity:1;" d="M 543.324219 360.441406 L 566.488281 392.664062 L 573.917969 392.664062 L 592.890625 365.886719 L 580.882812 347.109375 L 566.335938 367.675781 L 578.648438 367.675781 L 569.800781 382.113281 L 555.675781 362.6875 L 571.53125 340.0625 L 598.890625 340.0625 L 598.890625 372.78125 L 577.1875 402.914062 L 538.628906 402.914062 L 525.160156 385.238281 L 533.28125 372.097656 L 541.054688 383.179688 L 541.054688 384.703125 L 533.933594 384.703125 L 542.863281 397.769531 L 554.753906 384.285156 L 533.933594 355.257812 L 511.113281 385.886719 L 522.734375 400.4375 L 518.964844 402.914062 L 513.691406 402.914062 L 503.917969 389.808594 L 490.292969 408.128906 L 503.917969 426.453125 L 513.691406 413.347656 L 518.964844 413.347656 L 522.734375 415.824219 L 511.113281 430.375 L 533.933594 461.003906 L 554.753906 431.976562 L 542.863281 418.492188 L 533.933594 431.558594 L 541.054688 431.558594 L 541.054688 433.082031 L 533.28125 444.164062 L 525.160156 431.023438 L 538.628906 413.347656 L 577.1875 413.347656 L 598.890625 443.480469 L 598.890625 476.199219 L 571.53125 476.199219 L 555.675781 453.574219 L 569.800781 434.148438 L 578.648438 448.585938 L 566.335938 448.585938 L 580.882812 469.152344 L 592.890625 450.375 L 573.917969 423.597656 L 566.488281 423.597656 L 543.324219 455.820312 L 564.644531 484.316406 L 609.398438 484.316406 L 609.398438 436.050781 L 589.734375 408.128906 L 609.398438 380.210938 L 609.398438 331.945312 L 564.644531 331.945312 Z M 543.324219 360.441406 "/></g><g clip-rule="nonzero" clip-path="url(#d63eb5f411)"><path style=" stroke:none;fill-rule:nonzero;fill:#000000;fill-opacity:1;" d="M 651.070312 376.09375 L 659.015625 383.640625 L 658.941406 383.710938 L 668.414062 392.601562 L 702.335938 358.738281 L 661.601562 332.039062 L 626.878906 363.640625 L 626.878906 452.707031 L 661.601562 484.277344 L 702.335938 457.574219 L 668.414062 423.710938 L 658.941406 432.601562 L 659.015625 432.671875 L 651.070312 440.21875 L 669.800781 458.351562 L 669.800781 443.429688 L 681.894531 455.527344 L 662.949219 467.980469 L 640.066406 447.167969 L 640.066406 415.847656 L 679.710938 415.847656 L 713.957031 449.179688 L 772.621094 408.15625 L 713.996094 367.167969 L 679.746094 400.503906 L 640.066406 400.503906 L 640.066406 369.144531 L 662.949219 348.332031 L 681.933594 360.75 L 669.835938 372.847656 L 669.835938 357.929688 Z M 750.066406 408.15625 L 715.417969 432.425781 L 690.496094 408.15625 L 715.417969 383.925781 Z M 750.066406 408.15625 "/></g><g clip-rule="nonzero" clip-path="url(#454c2c9185)"><path style=" stroke:none;fill-rule:nonzero;fill:#000000;fill-opacity:1;" d="M 329.195312 328.523438 L 329.195312 390.320312 L 342.84375 398.933594 L 319.769531 398.933594 L 319.769531 410.476562 L 342.84375 410.476562 L 329.195312 419.089844 L 329.195312 480.890625 L 341.078125 480.890625 L 341.078125 466.464844 L 355.84375 476.75 L 373.667969 465 L 355.070312 454.128906 L 355.070312 468.136719 L 341.078125 457.851562 L 341.078125 423.898438 L 356.445312 414.699219 L 356.445312 447.5625 L 381.84375 434.269531 L 381.84375 457.179688 L 398.804688 446.308594 L 398.804688 476.75 L 412.882812 476.75 L 412.882812 446.308594 L 429.84375 457.179688 L 429.84375 434.269531 L 455.242188 447.5625 L 455.242188 414.699219 L 470.609375 423.898438 L 470.609375 457.851562 L 456.664062 468.136719 L 456.664062 454.128906 L 438.066406 465 L 455.886719 476.75 L 470.652344 466.464844 L 470.652344 480.890625 L 482.535156 480.890625 L 482.535156 419.089844 L 468.890625 410.476562 L 491.964844 410.476562 L 491.964844 398.933594 L 468.890625 398.933594 L 482.535156 390.320312 L 482.535156 328.523438 L 470.652344 328.523438 L 470.652344 342.402344 L 455.886719 332.117188 L 438.109375 343.867188 L 456.707031 354.738281 L 456.707031 340.773438 L 470.695312 351.058594 L 470.695312 385.511719 L 455.328125 394.710938 L 455.328125 361.386719 L 429.929688 374.683594 L 429.929688 351.769531 L 412.96875 362.640625 L 412.96875 332.117188 L 398.890625 332.117188 L 398.890625 362.640625 L 381.929688 351.769531 L 381.929688 374.683594 L 356.53125 361.386719 L 356.53125 394.753906 L 341.164062 385.554688 L 341.164062 351.101562 L 355.070312 340.773438 L 355.070312 354.738281 L 373.667969 343.867188 L 355.886719 332.117188 L 341.121094 342.402344 L 341.121094 328.523438 Z M 398.804688 384.886719 L 398.804688 396.300781 L 412.882812 396.300781 L 412.882812 384.886719 L 449.214844 404.707031 L 412.882812 424.523438 L 412.882812 412.566406 L 398.804688 412.566406 L 398.804688 424.523438 L 362.472656 404.707031 Z M 398.804688 384.886719 "/></g><g clip-rule="nonzero" clip-path="url(#e66acf97d6)"><path style=" stroke:none;fill-rule:nonzero;fill:#000000;fill-opacity:1;" d="M 266.585938 449.507812 L 243.417969 417.28125 L 235.992188 417.28125 L 217.019531 444.058594 L 229.027344 462.839844 L 243.570312 442.269531 L 231.257812 442.269531 L 240.109375 427.832031 L 254.230469 447.261719 L 238.375 469.886719 L 211.015625 469.886719 L 211.015625 437.164062 L 232.71875 407.035156 L 271.277344 407.035156 L 284.75 424.710938 L 276.628906 437.851562 L 268.855469 426.765625 L 268.855469 425.242188 L 275.972656 425.242188 L 267.046875 412.175781 L 255.15625 425.664062 L 275.972656 454.6875 L 298.792969 424.0625 L 287.171875 409.511719 L 290.945312 407.035156 L 296.214844 407.035156 L 305.992188 420.140625 L 319.613281 401.816406 L 305.992188 383.496094 L 296.214844 396.597656 L 290.945312 396.597656 L 287.171875 394.121094 L 298.792969 379.570312 L 275.972656 348.945312 L 255.15625 377.972656 L 267.046875 391.457031 L 275.972656 378.390625 L 268.855469 378.390625 L 268.855469 376.867188 L 276.628906 365.78125 L 284.75 378.921875 L 271.277344 396.597656 L 232.71875 396.597656 L 211.015625 366.46875 L 211.015625 333.746094 L 238.375 333.746094 L 254.230469 356.371094 L 240.109375 375.800781 L 231.257812 361.363281 L 243.570312 361.363281 L 229.027344 340.792969 L 217.019531 359.574219 L 235.992188 386.351562 L 243.417969 386.351562 L 266.585938 354.125 L 245.265625 325.632812 L 200.511719 325.632812 L 200.511719 373.894531 L 220.175781 401.816406 L 200.511719 429.738281 L 200.511719 478 L 245.265625 478 Z M 266.585938 449.507812 "/></g><g clip-rule="nonzero" clip-path="url(#7c48750a5e)"><path style=" stroke:none;fill-rule:nonzero;fill:#000000;fill-opacity:1;" d="M 158.835938 433.90625 L 150.894531 426.355469 L 150.964844 426.285156 L 141.492188 417.398438 L 107.570312 451.261719 L 148.308594 477.960938 L 183.03125 446.355469 L 183.03125 357.292969 L 148.308594 325.722656 L 107.570312 352.425781 L 141.492188 386.289062 L 150.964844 377.398438 L 150.894531 377.328125 L 158.835938 369.78125 L 140.109375 351.648438 L 140.109375 366.570312 L 128.011719 354.472656 L 146.957031 342.019531 L 169.839844 362.832031 L 169.839844 394.152344 L 130.199219 394.152344 L 95.949219 360.820312 L 37.289062 401.84375 L 95.914062 442.828125 L 130.160156 409.496094 L 169.839844 409.496094 L 169.839844 440.855469 L 146.957031 461.664062 L 127.976562 449.25 L 140.074219 437.152344 L 140.074219 452.070312 Z M 59.839844 401.84375 L 94.492188 377.574219 L 119.414062 401.84375 L 94.492188 426.074219 Z M 59.839844 401.84375 "/></g></g></svg>